<svg id="Capa_1" data-name="Capa 1" xmlns="http://www.w3.org/2000/svg" viewBox="0 0 384.58 384.58"><defs><style>.cls-1{fill:#fff;}.cls-2{fill:#b3b3b3;}.cls-3{fill:#03c3ff;}</style></defs><title>imagotype V cyan</title><rect class="cls-1" width="384.58" height="384.58"/><path class="cls-2" d="M114.43,244.31h-.27a11.66,11.66,0,0,0-1.42-2.15,7.67,7.67,0,0,0-2.48-2,8.7,8.7,0,0,0-4-.82,10.71,10.71,0,0,0-5.78,1.63,11.25,11.25,0,0,0-4.11,4.81,18,18,0,0,0-1.52,7.78,18.2,18.2,0,0,0,1.49,7.74,11.38,11.38,0,0,0,4.07,4.86,10.44,10.44,0,0,0,5.83,1.68,8.63,8.63,0,0,0,3.94-.8,7.69,7.69,0,0,0,2.52-1.91,10.32,10.32,0,0,0,1.46-2.14h.4v4.36H121V230.52h-6.54Zm-.63,13.94a6.89,6.89,0,0,1-2.21,3.15,5.6,5.6,0,0,1-3.53,1.12,5.66,5.66,0,0,1-3.61-1.16,7.05,7.05,0,0,1-2.21-3.19,14.51,14.51,0,0,1,0-9.18,6.8,6.8,0,0,1,2.2-3.14,6.35,6.35,0,0,1,7.19,0,6.76,6.76,0,0,1,2.19,3.08,14.85,14.85,0,0,1,0,9.35Z"/><path class="cls-2" d="M131.21,228.74a3.79,3.79,0,0,0-2.67,1,3.29,3.29,0,0,0-1.11,2.5,3.35,3.35,0,0,0,1.1,2.5,3.95,3.95,0,0,0,5.33,0,3.37,3.37,0,0,0,0-5A3.75,3.75,0,0,0,131.21,228.74Z"/><rect class="cls-2" x="127.93" y="239.73" width="6.52" height="27.65"/><path class="cls-2" d="M159.72,244.31h-.36a10.8,10.8,0,0,0-1.43-2.15,7.8,7.8,0,0,0-2.51-2,8.7,8.7,0,0,0-4-.82,10.69,10.69,0,0,0-5.78,1.63,11.24,11.24,0,0,0-4.11,4.77,17.5,17.5,0,0,0-1.52,7.7,16.44,16.44,0,0,0,1.52,7.51,10.52,10.52,0,0,0,4.1,4.5,11.29,11.29,0,0,0,5.77,1.5,9.52,9.52,0,0,0,3.95-.72,7.63,7.63,0,0,0,2.54-1.78,9.71,9.71,0,0,0,1.47-2.07h.32v5.24a5.11,5.11,0,0,1-1.82,4.4,7.54,7.54,0,0,1-4.59,1.34,8.66,8.66,0,0,1-3.25-.53,5.83,5.83,0,0,1-2-1.33,6.7,6.7,0,0,1-1.15-1.61L141,271.34a8.84,8.84,0,0,0,2.13,3.51,10.75,10.75,0,0,0,4,2.53,17.2,17.2,0,0,0,6,.94,18,18,0,0,0,6.66-1.15,10.22,10.22,0,0,0,4.63-3.47,9.71,9.71,0,0,0,1.69-5.87v-28.1h-6.42ZM159,258a6.16,6.16,0,0,1-2.21,2.89,6.7,6.7,0,0,1-7.14,0,6.35,6.35,0,0,1-2.21-2.95,12.08,12.08,0,0,1-.75-4.44,12.47,12.47,0,0,1,.74-4.47,6.87,6.87,0,0,1,2.19-3.11,5.79,5.79,0,0,1,3.64-1.13,5.7,5.7,0,0,1,3.55,1.09,6.62,6.62,0,0,1,2.2,3.05,12.76,12.76,0,0,1,.75,4.57A12.29,12.29,0,0,1,159,258Z"/><rect class="cls-2" x="172.84" y="239.73" width="6.52" height="27.65"/><path class="cls-2" d="M176.11,228.74a3.77,3.77,0,0,0-2.66,1,3.27,3.27,0,0,0-1.12,2.5,3.32,3.32,0,0,0,1.11,2.5,3.95,3.95,0,0,0,5.33,0,3.39,3.39,0,0,0,0-5A3.77,3.77,0,0,0,176.11,228.74Z"/><path class="cls-2" d="M206.81,241a10.67,10.67,0,0,0-5.79-1.63,8.63,8.63,0,0,0-4,.82,7.61,7.61,0,0,0-2.49,2,12.2,12.2,0,0,0-1.42,2.15h-.27V230.52h-6.52v36.86h6.41V263h.38a11.74,11.74,0,0,0,1.47,2.14,7.65,7.65,0,0,0,2.51,1.91,8.66,8.66,0,0,0,3.94.8,10.44,10.44,0,0,0,5.83-1.68,11.31,11.31,0,0,0,4.07-4.86,18.2,18.2,0,0,0,1.49-7.74,18,18,0,0,0-1.52-7.78A11.23,11.23,0,0,0,206.81,241ZM205,258.17a7,7,0,0,1-2.2,3.19,5.65,5.65,0,0,1-3.62,1.16,5.57,5.57,0,0,1-3.52-1.12,7,7,0,0,1-2.21-3.15,14.76,14.76,0,0,1,0-9.35,6.65,6.65,0,0,1,2.21-3.08,5.72,5.72,0,0,1,3.54-1.1,5.81,5.81,0,0,1,3.64,1.13,6.86,6.86,0,0,1,2.19,3.14,14.51,14.51,0,0,1,0,9.18Z"/><path class="cls-2" d="M228.41,260.61h-.28l-6.37-20.88h-6.92l10,28.23-.56,1.49a5.15,5.15,0,0,1-1.45,2.24,3.15,3.15,0,0,1-2,.69,9,9,0,0,1-2.54-.39l-1.51,5.07a9.74,9.74,0,0,0,1.79.48,13.43,13.43,0,0,0,2.46.21,10.56,10.56,0,0,0,4.4-.84,8.47,8.47,0,0,0,3.12-2.41,12.49,12.49,0,0,0,2-3.77l11.07-31H234.8Z"/><path class="cls-2" d="M258.66,262.18a6.52,6.52,0,0,1-1.12.09,4.33,4.33,0,0,1-1.48-.25,2.13,2.13,0,0,1-1.07-.95,4,4,0,0,1-.41-2V244.77H260v-5h-5.46v-6.62h-6.51v6.62h-3.93v5h3.93v15.37a7.59,7.59,0,0,0,1.12,4.32A6.73,6.73,0,0,0,252.3,267a10.45,10.45,0,0,0,4.41.75,13.43,13.43,0,0,0,2.35-.25c.64-.15,1.13-.28,1.48-.4l-1.1-5.09Z"/><path class="cls-2" d="M289.73,253.34a17.62,17.62,0,0,0-1-6.27,12,12,0,0,0-2.77-4.35,11.13,11.13,0,0,0-4-2.53,14.33,14.33,0,0,0-4.83-.82,12.9,12.9,0,0,0-6.89,1.81,12.33,12.33,0,0,0-4.57,5,18.19,18.19,0,0,0,0,15,11.58,11.58,0,0,0,4.64,4.93,14.1,14.1,0,0,0,7.17,1.74,15.62,15.62,0,0,0,5.72-1,10.82,10.82,0,0,0,4.12-2.77,9.5,9.5,0,0,0,2.18-4.21l-6.08-.68a5,5,0,0,1-1.28,2,5.54,5.54,0,0,1-2,1.2,7.66,7.66,0,0,1-2.57.4,7.39,7.39,0,0,1-3.71-.9,6.32,6.32,0,0,1-2.46-2.63,8.87,8.87,0,0,1-.88-4h19.25ZM270.5,251a7.28,7.28,0,0,1,.83-3,6.76,6.76,0,0,1,2.35-2.52,6.42,6.42,0,0,1,3.51-1,6.19,6.19,0,0,1,3.28.85,5.85,5.85,0,0,1,2.21,2.31,7,7,0,0,1,.81,3.34Z"/><path class="cls-3" d="M199.28,106.26l-44.16,0a4.46,4.46,0,0,0-4.31,3.32h0a4.61,4.61,0,0,0,4.46,5.8l44-.05a36.87,36.87,0,1,1,0,73.74H174a10.48,10.48,0,0,1-10.12-13.18l7.1-26.58a1.32,1.32,0,0,0-1.27-1.66H144.14a4.55,4.55,0,0,0-4.4,3.38h0a4.56,4.56,0,0,0,4.4,5.73h13.67a1.33,1.33,0,0,1,1.28,1.67l-4.85,18.17a17.15,17.15,0,0,0,16.57,21.58h28.5a46,46,0,0,0,0-92Z"/><path class="cls-3" d="M215.48,152.24a16.19,16.19,0,0,1-16.17,16.19h-12l4-15a4.56,4.56,0,0,0-4.41-5.73h0a4.55,4.55,0,0,0-4.4,3.38l-7.07,26.47h23.9a25.3,25.3,0,0,0,0-50.6l-49.63,0a4.55,4.55,0,0,0-4.4,3.38h0a4.55,4.55,0,0,0,4.4,5.73l49.64-.06A16.19,16.19,0,0,1,215.48,152.24Z"/></svg>