<svg id="Capa_1" data-name="Capa 1" xmlns="http://www.w3.org/2000/svg" viewBox="0 0 309.3 141.89"><defs><style>.cls-1{fill:#fff;}.cls-2{fill:#4c008b;}</style></defs><title>logotype purple</title><rect class="cls-1" width="309.3" height="141.89"/><path class="cls-2" d="M76.47,61.66H76.2a12.2,12.2,0,0,0-1.43-2.17,7.9,7.9,0,0,0-2.5-2,8.63,8.63,0,0,0-4-.83,10.74,10.74,0,0,0-5.82,1.64,11.33,11.33,0,0,0-4.14,4.84A18.08,18.08,0,0,0,56.76,71a18.28,18.28,0,0,0,1.5,7.79,11.48,11.48,0,0,0,4.1,4.9,10.53,10.53,0,0,0,5.87,1.68,8.82,8.82,0,0,0,4-.8,7.89,7.89,0,0,0,2.53-1.93,11.11,11.11,0,0,0,1.47-2.14h.4v4.38h6.45V47.78H76.47Zm-.63,14a7,7,0,0,1-2.23,3.17,6.19,6.19,0,0,1-7.19,0,7.13,7.13,0,0,1-2.22-3.21,14.54,14.54,0,0,1,0-9.25,6.85,6.85,0,0,1,2.21-3.15,6.41,6.41,0,0,1,7.24,0,6.79,6.79,0,0,1,2.21,3.1,15.07,15.07,0,0,1,0,9.42Z"/><path class="cls-2" d="M93.36,46A3.79,3.79,0,0,0,90.68,47a3.29,3.29,0,0,0-1.12,2.51,3.34,3.34,0,0,0,1.11,2.51,3.71,3.71,0,0,0,2.67,1.06,3.78,3.78,0,0,0,2.69-1,3.29,3.29,0,0,0,1.12-2.51A3.35,3.35,0,0,0,96,47,3.75,3.75,0,0,0,93.36,46Z"/><rect class="cls-2" x="90.06" y="57.06" width="6.56" height="27.83"/><path class="cls-2" d="M122.07,61.66h-.37a10.74,10.74,0,0,0-1.43-2.17,8,8,0,0,0-2.53-2,8.67,8.67,0,0,0-4-.83,10.69,10.69,0,0,0-5.81,1.64,11.45,11.45,0,0,0-4.15,4.81,17.65,17.65,0,0,0-1.53,7.74,16.64,16.64,0,0,0,1.53,7.57A10.69,10.69,0,0,0,107.89,83a11.3,11.3,0,0,0,5.8,1.51,9.63,9.63,0,0,0,4-.72,7.76,7.76,0,0,0,2.56-1.8,9.18,9.18,0,0,0,1.47-2.08H122v5.27a5.13,5.13,0,0,1-1.83,4.43,7.57,7.57,0,0,1-4.62,1.35,8.74,8.74,0,0,1-3.27-.53,5.84,5.84,0,0,1-2.06-1.34,6.8,6.8,0,0,1-1.16-1.62l-5.91,1.43a8.75,8.75,0,0,0,2.14,3.53A11,11,0,0,0,109.4,95a17.39,17.39,0,0,0,6.07,1,18.24,18.24,0,0,0,6.7-1.16,10.17,10.17,0,0,0,4.66-3.5,9.76,9.76,0,0,0,1.71-5.91V57.06h-6.47Zm-.77,13.75a6.26,6.26,0,0,1-2.22,2.92,6.73,6.73,0,0,1-7.19,0,6.49,6.49,0,0,1-2.23-3,12.15,12.15,0,0,1-.75-4.46,13,13,0,0,1,.74-4.51,6.94,6.94,0,0,1,2.21-3.12,6.43,6.43,0,0,1,7.24,0,6.68,6.68,0,0,1,2.21,3.07,12.77,12.77,0,0,1,.76,4.61A12.22,12.22,0,0,1,121.3,75.41Z"/><rect class="cls-2" x="135.28" y="57.06" width="6.56" height="27.83"/><path class="cls-2" d="M138.57,46A3.8,3.8,0,0,0,135.89,47a3.29,3.29,0,0,0-1.12,2.51,3.34,3.34,0,0,0,1.11,2.51,3.75,3.75,0,0,0,2.68,1.06,3.79,3.79,0,0,0,2.69-1,3.31,3.31,0,0,0,1.11-2.51A3.38,3.38,0,0,0,141.25,47,3.79,3.79,0,0,0,138.57,46Z"/><path class="cls-2" d="M169.48,58.33a10.73,10.73,0,0,0-5.83-1.64,8.63,8.63,0,0,0-4,.83,7.9,7.9,0,0,0-2.5,2,12.2,12.2,0,0,0-1.43,2.17h-.27V47.78h-6.56V84.89h6.45V80.51h.38a11.68,11.68,0,0,0,1.48,2.14,7.73,7.73,0,0,0,2.52,1.93,8.82,8.82,0,0,0,4,.8,10.53,10.53,0,0,0,5.87-1.68,11.48,11.48,0,0,0,4.1-4.9,18.28,18.28,0,0,0,1.5-7.79,18.08,18.08,0,0,0-1.53-7.84A11.38,11.38,0,0,0,169.48,58.33ZM167.7,75.62a7.13,7.13,0,0,1-2.22,3.21,6.18,6.18,0,0,1-7.18,0,7.06,7.06,0,0,1-2.23-3.17,15,15,0,0,1,0-9.42,6.73,6.73,0,0,1,2.22-3.1,6.39,6.39,0,0,1,7.23,0,6.85,6.85,0,0,1,2.21,3.15,14.54,14.54,0,0,1,0,9.25Z"/><path class="cls-2" d="M191.24,78.08H191l-6.42-21h-7l10.1,28.41L187.1,87a5,5,0,0,1-1.46,2.26,3.18,3.18,0,0,1-2,.7,8.7,8.7,0,0,1-2.55-.4l-1.53,5.11a9.78,9.78,0,0,0,1.81.48,13.54,13.54,0,0,0,2.47.21,10.68,10.68,0,0,0,4.43-.84,8.61,8.61,0,0,0,3.14-2.43,12.7,12.7,0,0,0,2.07-3.8l11.15-31.2h-7Z"/><path class="cls-2" d="M221.69,79.65a6.64,6.64,0,0,1-1.13.09,4.16,4.16,0,0,1-1.49-.25,2.11,2.11,0,0,1-1.08-.95,4.09,4.09,0,0,1-.41-2V62.13h5.49V57.06h-5.49V50.39H211v6.67h-4v5.07h4V77.61A7.56,7.56,0,0,0,212.16,82a6.79,6.79,0,0,0,3.12,2.57,10.59,10.59,0,0,0,4.44.75,12.67,12.67,0,0,0,2.37-.25c.64-.15,1.14-.28,1.49-.4l-1.1-5.13C222.3,79.54,222,79.59,221.69,79.65Z"/><path class="cls-2" d="M253,70.76a17.64,17.64,0,0,0-1-6.32,12,12,0,0,0-2.78-4.38,11.28,11.28,0,0,0-4.06-2.54,14.28,14.28,0,0,0-4.87-.83,12.93,12.93,0,0,0-6.94,1.83,12.27,12.27,0,0,0-4.59,5.07,16.59,16.59,0,0,0-1.64,7.55,16.51,16.51,0,0,0,1.63,7.58,11.74,11.74,0,0,0,4.67,5,14.27,14.27,0,0,0,7.22,1.74,15.67,15.67,0,0,0,5.76-1,10.75,10.75,0,0,0,4.14-2.79,9.54,9.54,0,0,0,2.2-4.24l-6.12-.68a5,5,0,0,1-1.29,2,5.84,5.84,0,0,1-2,1.21,7.82,7.82,0,0,1-2.59.4,7.34,7.34,0,0,1-3.73-.91,6.2,6.2,0,0,1-2.49-2.65,8.93,8.93,0,0,1-.88-4H253Zm-19.36-2.41a7,7,0,0,1,.84-3,6.84,6.84,0,0,1,2.36-2.54,6.47,6.47,0,0,1,3.53-1,6.3,6.3,0,0,1,3.31.86A5.9,5.9,0,0,1,245.87,65a7.27,7.27,0,0,1,.82,3.37Z"/></svg>