<svg id="Capa_1" data-name="Capa 1" xmlns="http://www.w3.org/2000/svg" viewBox="0 0 203.45 203.45"><defs><style>.cls-1{fill:#fff;}.cls-2{fill:#706f6f;}</style></defs><title>isotype grey</title><rect class="cls-1" width="203.45" height="203.45"/><path class="cls-2" d="M105.15,70.42l-30.06,0a3,3,0,0,0-2.94,2.26h0a3.14,3.14,0,0,0,3,4l30,0a25.11,25.11,0,0,1,0,50.21H87.93a7.13,7.13,0,0,1-6.89-9l4.83-18.1A.9.9,0,0,0,85,98.63H67.61a3.09,3.09,0,0,0-3,2.3h0a3.1,3.1,0,0,0,3,3.9h9.31a.91.91,0,0,1,.87,1.14l-3.31,12.37A11.68,11.68,0,0,0,85.77,133h19.4a31.31,31.31,0,1,0,0-62.61Z"/><path class="cls-2" d="M116.18,101.72a11,11,0,0,1-11,11H97l2.73-10.21a3.1,3.1,0,0,0-3-3.9h0a3.09,3.09,0,0,0-3,2.3L88.9,119h16.27a17.23,17.23,0,0,0,0-34.45l-33.79,0a3.09,3.09,0,0,0-3,2.3h0a3.1,3.1,0,0,0,3,3.9l33.8,0A11,11,0,0,1,116.18,101.72Z"/></svg>